<svg id="Capa_1" data-name="Capa 1" xmlns="http://www.w3.org/2000/svg" viewBox="0 0 24 24"><defs><style>.cls-1{fill:#a31319;}</style></defs><title>logo-displa</title><path class="cls-1" d="M9.18.53c-.19,0-.38,0-.56,0H1.3c.63.65,1.28,1.27,1.88,1.93A16.51,16.51,0,0,1,6.26,7.25a12.06,12.06,0,0,1,.71,7,14,14,0,0,1-1.4,4,18.12,18.12,0,0,1-4,5.16s-.08,0-.12,0l.05.05H9.37V.53ZM9,23.09H2.36l.58-.61a17.8,17.8,0,0,0,3.89-6.37,12.69,12.69,0,0,0,.65-5.37A13.54,13.54,0,0,0,5.39,4.79,19.54,19.54,0,0,0,2.67,1.36l-.5-.5H9Z"/><path class="cls-1" d="M9,.86V23.09H2.36l.58-.61a17.8,17.8,0,0,0,3.89-6.37,12.69,12.69,0,0,0,.65-5.37A13.54,13.54,0,0,0,5.39,4.79,19.54,19.54,0,0,0,2.67,1.36l-.5-.5Z"/><path class="cls-1" d="M22.22,9.39a11.33,11.33,0,0,0-4.79-6.23,25.44,25.44,0,0,0-6-2.63l-.08.13c-.1.11-.08.19,0,.3.27.25.51.51.76.77a20.89,20.89,0,0,1,3.59,5.05,12.52,12.52,0,0,1,1.32,4.84,11.17,11.17,0,0,1-.7,4.65,15.89,15.89,0,0,1-4.27,6.13l-.94.79.06.16.07.14a19.23,19.23,0,0,0,4.85-1.68,13.27,13.27,0,0,0,4.7-4A9.06,9.06,0,0,0,22.22,9.39ZM20.28,18A13.47,13.47,0,0,1,14,22.39c-.6.21-1.22.38-1.83.55,0,0,0,0-.1,0,.23-.23.45-.42.66-.62a15.8,15.8,0,0,0,4.13-6.24,11.51,11.51,0,0,0,.6-4.88A14,14,0,0,0,15.24,5.1,22.3,22.3,0,0,0,12.3,1.35l-.21-.23.12,0a23.16,23.16,0,0,1,4.56,2A11.1,11.1,0,0,1,22,9.89,8.75,8.75,0,0,1,20.28,18Z"/><path class="cls-1" d="M20.28,18A13.47,13.47,0,0,1,14,22.39c-.6.21-1.22.38-1.83.55,0,0,0,0-.1,0,.23-.23.45-.42.66-.62a15.8,15.8,0,0,0,4.13-6.24,11.51,11.51,0,0,0,.6-4.88A14,14,0,0,0,15.24,5.1,22.3,22.3,0,0,0,12.3,1.35l-.21-.23.12,0a23.16,23.16,0,0,1,4.56,2A11.1,11.1,0,0,1,22,9.89,8.75,8.75,0,0,1,20.28,18Z"/></svg>