<svg id="Capa_1" data-name="Capa 1" xmlns="http://www.w3.org/2000/svg" viewBox="0 0 24 24"><defs><style>.cls-1{fill:#a31319;}.cls-2{fill:none;stroke:#a31319;stroke-miterlimit:10;}</style></defs><title>logo-displa2</title><path class="cls-1" d="M10.81,4.74h-5c.4.4.81.8,1.19,1.22A10.59,10.59,0,0,1,9,9a7.53,7.53,0,0,1,.44,4.4,8.62,8.62,0,0,1-.88,2.51A11.3,11.3,0,0,1,6,19.16s0,0-.07,0l0,0h5V4.74ZM10.72,19H6.5l.37-.38a11.38,11.38,0,0,0,2.46-4,8.13,8.13,0,0,0,.41-3.39A8.61,8.61,0,0,0,8.42,7.44,12.82,12.82,0,0,0,6.7,5.27L6.38,5h4.34Z"/><path class="cls-1" d="M10.72,5V19H6.5l.37-.38a11.38,11.38,0,0,0,2.46-4,8.13,8.13,0,0,0,.41-3.39A8.61,8.61,0,0,0,8.42,7.44,12.82,12.82,0,0,0,6.7,5.27L6.38,5Z"/><path class="cls-1" d="M19.06,10.35a7.18,7.18,0,0,0-3-3.94,15.92,15.92,0,0,0-3.77-1.67.56.56,0,0,1,0,.08.12.12,0,0,0,0,.19c.17.16.32.33.48.5A13,13,0,0,1,15,8.7a7.94,7.94,0,0,1,.84,3.06,7,7,0,0,1-.45,2.94,9.91,9.91,0,0,1-2.7,3.87c-.19.18-.39.34-.59.51l0,.1,0,.09a12.27,12.27,0,0,0,3.07-1.06,8.52,8.52,0,0,0,3-2.56A5.73,5.73,0,0,0,19.06,10.35Zm-1.23,5.42a8.51,8.51,0,0,1-4,2.8c-.38.13-.77.24-1.16.35l-.06,0,.42-.4a10,10,0,0,0,2.61-3.94A7.33,7.33,0,0,0,16,11.52a9,9,0,0,0-1.37-3.89,14.76,14.76,0,0,0-1.86-2.36l-.14-.15h.08a15.14,15.14,0,0,1,2.88,1.28,7,7,0,0,1,3.32,4.25A5.51,5.51,0,0,1,17.83,15.77Z"/><path class="cls-1" d="M17.83,15.77a8.51,8.51,0,0,1-4,2.8c-.38.13-.77.24-1.16.35l-.06,0,.42-.4a10,10,0,0,0,2.61-3.94A7.33,7.33,0,0,0,16,11.52a9,9,0,0,0-1.37-3.89,14.76,14.76,0,0,0-1.86-2.36l-.14-.15h.08a15.14,15.14,0,0,1,2.88,1.28,7,7,0,0,1,3.32,4.25A5.51,5.51,0,0,1,17.83,15.77Z"/><circle class="cls-2" cx="12" cy="12" r="11.28"/></svg>