<svg id="Capa_1" data-name="Capa 1" xmlns="http://www.w3.org/2000/svg" viewBox="0 0 24 24"><defs><style>.cls-1{fill:#a31319;}</style></defs><title>logo-displa2-01</title><path class="cls-1" d="M10.46,4.73H5.83c.4.4.81.8,1.19,1.22A10.59,10.59,0,0,1,9,9a7.53,7.53,0,0,1,.44,4.4,8.62,8.62,0,0,1-.88,2.51A11.3,11.3,0,0,1,6,19.16s0,0-.07,0l0,0h5V4.74h-.47Z"/><path class="cls-1" d="M16,6.41a15.92,15.92,0,0,0-3.77-1.67.56.56,0,0,1,0,.08.12.12,0,0,0,0,.19c.17.16.32.33.48.5A13,13,0,0,1,15,8.7a7.94,7.94,0,0,1,.84,3.06,7,7,0,0,1-.45,2.94,9.91,9.91,0,0,1-2.7,3.87c-.19.18-.39.34-.59.51l0,.1,0,.09a12.27,12.27,0,0,0,3.07-1.06,8.52,8.52,0,0,0,3-2.56,5.73,5.73,0,0,0,.86-5.3A7.18,7.18,0,0,0,16,6.41Z"/><path class="cls-1" d="M12,.22A11.78,11.78,0,1,0,23.78,12,11.79,11.79,0,0,0,12,.22Zm0,22.56A10.78,10.78,0,1,1,22.78,12,10.8,10.8,0,0,1,12,22.78Z"/></svg>